<svg width="60" height="60" viewBox="0 0 60 60" fill="none" xmlns="http://www.w3.org/2000/svg">
<g id="2298306151607043061 1" clip-path="url(#clip0_43_9)">
<g id="Layer 2">
<g id="Layer 2_2">
<path id="Vector" d="M29.5388 1.49475C13.5306 1.49475 1.3764 13.0643 1.3764 27.3243C1.25566 30.5221 1.87379 33.7019 3.17447 36.5738C4.47515 39.4458 6.417 41.9185 8.82306 43.7668C9.62683 47.7956 9.4321 51.9839 8.25871 55.9043C8.16081 56.2607 8.15551 56.6395 8.24339 56.999C8.33127 57.3584 8.50891 57.6845 8.7567 57.9412C9.0045 58.198 9.3128 58.3753 9.64757 58.4537C9.98233 58.5322 10.3305 58.5086 10.6538 58.3856L25.2305 52.7803C26.7163 53.019 28.2158 53.1438 29.7178 53.1539C45.726 53.1539 58.6235 41.5844 58.6235 27.3243C58.6235 13.0643 45.5471 1.49475 29.5388 1.49475Z" stroke="white" stroke-width="2" stroke-linecap="round" stroke-linejoin="round"/>
<path id="Vector_2" d="M24.9827 52.7803C21.7094 52.0914 18.5527 50.8613 15.6228 49.1331" stroke="white" stroke-width="2" stroke-linecap="round" stroke-linejoin="round"/>
<path id="Vector_3" d="M17.6737 31.7489C19.4754 31.7489 20.9359 30.1628 20.9359 28.2063C20.9359 26.2498 19.4754 24.6637 17.6737 24.6637C15.872 24.6637 14.4115 26.2498 14.4115 28.2063C14.4115 30.1628 15.872 31.7489 17.6737 31.7489Z" fill="white"/>
<path id="Vector_4" d="M30.4473 31.7489C32.2489 31.7489 33.7095 30.1628 33.7095 28.2063C33.7095 26.2498 32.2489 24.6637 30.4473 24.6637C28.6456 24.6637 27.1851 26.2498 27.1851 28.2063C27.1851 30.1628 28.6456 31.7489 30.4473 31.7489Z" fill="white"/>
<path id="Vector_5" d="M43.2208 31.7489C45.0225 31.7489 46.483 30.1628 46.483 28.2063C46.483 26.2498 45.0225 24.6637 43.2208 24.6637C41.4192 24.6637 39.9586 26.2498 39.9586 28.2063C39.9586 30.1628 41.4192 31.7489 43.2208 31.7489Z" fill="white"/>
</g>
</g>
</g>
<defs>
<clipPath id="clip0_43_9">
<rect width="60" height="60" fill="white"/>
</clipPath>
</defs>
</svg>
