<svg width="30" height="30" viewBox="0 0 30 30" fill="none" xmlns="http://www.w3.org/2000/svg">
<path id="Vector" d="M0.275032 29.7263C0.457841 29.9091 0.697835 30 0.937829 30C1.17782 30 1.41782 29.9081 1.60156 29.7253L15 16.3107L28.3984 29.7253C28.5812 29.9091 28.8212 30 29.0622 30C29.3022 30 29.5422 29.9081 29.725 29.7263C30.0915 29.3606 30.0915 28.7672 29.7259 28.4006L16.3406 15.0001L29.725 1.60042C30.0906 1.23386 30.0906 0.640427 29.724 0.274804C29.3565 -0.0917575 28.764 -0.0917571 28.3984 0.275741L14.9991 13.6904L1.60063 0.275741C1.23407 -0.0908197 0.640649 -0.09082 0.275032 0.274804C-0.0915214 0.640427 -0.0915209 1.23386 0.274096 1.60042L13.6575 15.0001L0.274096 28.4006C-0.0915209 28.7663 -0.0915214 29.3606 0.275032 29.7263Z" fill="#007FFF"/>
</svg>
