<svg width="25" height="25" viewBox="0 0 25 25" fill="none" xmlns="http://www.w3.org/2000/svg">
<g id="12199001081543238936 1">
<path id="Vector" d="M3.125 6.25H5.20833H21.875" stroke="white" stroke-width="2" stroke-linecap="round" stroke-linejoin="round"/>
<path id="Vector_2" d="M19.7916 6.25016V20.8335C19.7916 21.386 19.5721 21.9159 19.1814 22.3066C18.7907 22.6973 18.2608 22.9168 17.7083 22.9168H7.29159C6.73905 22.9168 6.20915 22.6973 5.81845 22.3066C5.42775 21.9159 5.20825 21.386 5.20825 20.8335V6.25016M8.33325 6.25016V4.16683C8.33325 3.61429 8.55275 3.08439 8.94345 2.69369C9.33415 2.30299 9.86405 2.0835 10.4166 2.0835H14.5833C15.1358 2.0835 15.6657 2.30299 16.0564 2.69369C16.4471 3.08439 16.6666 3.61429 16.6666 4.16683V6.25016" stroke="white" stroke-width="2" stroke-linecap="round" stroke-linejoin="round"/>
</g>
</svg>
